name rise44.9368peak50.754fall52.0217.mot
datacolumns 19
datarows 27
range 9.35663400000000 9.39997400000000
endheader
time	ground_force1_vx	ground_force1_vy	ground_force1_vz	ground_force1_px	ground_force1_py	ground_force1_pz	ground_force2_vx	ground_force2_vy	ground_force2_vz	ground_force2_px	ground_force2_py	ground_force2_pz	ground_torque1_x	ground_torque1_y	ground_torque1_z	ground_torque2_x	ground_torque2_y	ground_torque2_z	
9.35663400000000	-4.50664400000000	709.58990300000005	49.49075400000000	0.24094700000000	0.00000000000000	0.13544800000000	0.00000000000000	0.00000000000000	0.00000000000000	0.00000000000000	0.00000000000000	0.00000000000000	0.00000000000000	25.04173400000000	0.00000000000000	0.00000000000000	0.00000000000000	0.00000000000000	
9.35830300000000	-5.08958200000000	710.31736400000000	49.55088500000000	0.23969200000000	0.00000000000000	0.13551600000000	0.00000000000000	0.00000000000000	0.00000000000000	0.00000000000000	0.00000000000000	0.00000000000000	0.00000000000000	25.16727400000000	0.00000000000000	0.00000000000000	0.00000000000000	0.00000000000000	
9.35997000000000	-5.68811300000000	711.06482600000004	49.61276300000000	0.23842100000000	0.00000000000000	0.13558300000000	0.00000000000000	0.00000000000000	0.00000000000000	0.00000000000000	0.00000000000000	0.00000000000000	0.00000000000000	25.29697600000000	0.00000000000000	0.00000000000000	0.00000000000000	0.00000000000000	
9.36163100000000	-6.30204800000000	711.83361300000001	49.67657100000000	0.23713600000000	0.00000000000000	0.13565100000000	0.00000000000000	0.00000000000000	0.00000000000000	0.00000000000000	0.00000000000000	0.00000000000000	0.00000000000000	25.43083500000000	0.00000000000000	0.00000000000000	0.00000000000000	0.00000000000000	
9.36329700000000	-6.93115300000000	712.62511099999995	49.74251000000000	0.23583900000000	0.00000000000000	0.13571900000000	0.00000000000000	0.00000000000000	0.00000000000000	0.00000000000000	0.00000000000000	0.00000000000000	0.00000000000000	25.56884300000000	0.00000000000000	0.00000000000000	0.00000000000000	0.00000000000000	
9.36497300000000	-7.57514800000000	713.44076500000006	49.81079900000000	0.23453000000000	0.00000000000000	0.13578700000000	0.00000000000000	0.00000000000000	0.00000000000000	0.00000000000000	0.00000000000000	0.00000000000000	0.00000000000000	25.71098600000000	0.00000000000000	0.00000000000000	0.00000000000000	0.00000000000000	
9.36663900000000	-8.23371000000000	714.28206699999998	49.88167000000000	0.23321000000000	0.00000000000000	0.13585500000000	0.00000000000000	0.00000000000000	0.00000000000000	0.00000000000000	0.00000000000000	0.00000000000000	0.00000000000000	25.85724700000000	0.00000000000000	0.00000000000000	0.00000000000000	0.00000000000000	
9.36830100000000	-8.90647000000000	715.15054799999996	49.95537200000000	0.23188200000000	0.00000000000000	0.13592300000000	0.00000000000000	0.00000000000000	0.00000000000000	0.00000000000000	0.00000000000000	0.00000000000000	0.00000000000000	26.00760300000000	0.00000000000000	0.00000000000000	0.00000000000000	0.00000000000000	
9.36997300000000	-9.59301900000000	716.04777000000001	50.03216700000000	0.23054700000000	0.00000000000000	0.13599100000000	0.00000000000000	0.00000000000000	0.00000000000000	0.00000000000000	0.00000000000000	0.00000000000000	0.00000000000000	26.16202500000000	0.00000000000000	0.00000000000000	0.00000000000000	0.00000000000000	
9.37163500000000	-10.29290400000000	716.97531200000003	50.11233200000000	0.22920600000000	0.00000000000000	0.13605900000000	0.00000000000000	0.00000000000000	0.00000000000000	0.00000000000000	0.00000000000000	0.00000000000000	0.00000000000000	26.32048000000000	0.00000000000000	0.00000000000000	0.00000000000000	0.00000000000000	
9.37330200000000	-11.00563200000000	717.93476499999997	50.19615200000000	0.22785900000000	0.00000000000000	0.13612600000000	0.00000000000000	0.00000000000000	0.00000000000000	0.00000000000000	0.00000000000000	0.00000000000000	0.00000000000000	26.48292600000000	0.00000000000000	0.00000000000000	0.00000000000000	0.00000000000000	
9.37497700000000	-11.73067400000000	718.92772000000002	50.28392500000000	0.22651000000000	0.00000000000000	0.13619400000000	0.00000000000000	0.00000000000000	0.00000000000000	0.00000000000000	0.00000000000000	0.00000000000000	0.00000000000000	26.64931700000000	0.00000000000000	0.00000000000000	0.00000000000000	0.00000000000000	
9.37663700000000	-12.46746000000000	719.95575799999995	50.37596000000000	0.22515900000000	0.00000000000000	0.13626100000000	0.00000000000000	0.00000000000000	0.00000000000000	0.00000000000000	0.00000000000000	0.00000000000000	0.00000000000000	26.81959800000000	0.00000000000000	0.00000000000000	0.00000000000000	0.00000000000000	
9.37829800000000	-13.21538700000000	721.02043700000002	50.47257000000000	0.22380800000000	0.00000000000000	0.13632700000000	0.00000000000000	0.00000000000000	0.00000000000000	0.00000000000000	0.00000000000000	0.00000000000000	0.00000000000000	26.99370700000000	0.00000000000000	0.00000000000000	0.00000000000000	0.00000000000000	
9.37996800000000	-13.97381700000000	722.12328600000001	50.57407900000000	0.22245800000000	0.00000000000000	0.13639400000000	0.00000000000000	0.00000000000000	0.00000000000000	0.00000000000000	0.00000000000000	0.00000000000000	0.00000000000000	27.17157400000000	0.00000000000000	0.00000000000000	0.00000000000000	0.00000000000000	
9.38163600000000	-14.74208200000000	723.26579300000003	50.68081400000000	0.22111000000000	0.00000000000000	0.13645900000000	0.00000000000000	0.00000000000000	0.00000000000000	0.00000000000000	0.00000000000000	0.00000000000000	0.00000000000000	27.35312300000000	0.00000000000000	0.00000000000000	0.00000000000000	0.00000000000000	
9.38330400000000	-15.51948300000000	724.44939199999999	50.79310800000000	0.21976700000000	0.00000000000000	0.13652400000000	0.00000000000000	0.00000000000000	0.00000000000000	0.00000000000000	0.00000000000000	0.00000000000000	0.00000000000000	27.53826800000000	0.00000000000000	0.00000000000000	0.00000000000000	0.00000000000000	
9.38496700000000	-16.30529300000000	725.67545700000005	50.91129500000000	0.21842900000000	0.00000000000000	0.13658900000000	0.00000000000000	0.00000000000000	0.00000000000000	0.00000000000000	0.00000000000000	0.00000000000000	0.00000000000000	27.72691500000000	0.00000000000000	0.00000000000000	0.00000000000000	0.00000000000000	
9.38663200000000	-17.09876100000000	726.94529100000000	51.03571100000000	0.21709800000000	0.00000000000000	0.13665300000000	0.00000000000000	0.00000000000000	0.00000000000000	0.00000000000000	0.00000000000000	0.00000000000000	0.00000000000000	27.91896100000000	0.00000000000000	0.00000000000000	0.00000000000000	0.00000000000000	
9.38830100000000	-17.89911200000000	728.26011200000005	51.16669100000000	0.21577500000000	0.00000000000000	0.13671500000000	0.00000000000000	0.00000000000000	0.00000000000000	0.00000000000000	0.00000000000000	0.00000000000000	0.00000000000000	28.11429400000000	0.00000000000000	0.00000000000000	0.00000000000000	0.00000000000000	
9.38996600000000	-18.70555200000000	729.62105199999996	51.30457100000000	0.21446200000000	0.00000000000000	0.13677700000000	0.00000000000000	0.00000000000000	0.00000000000000	0.00000000000000	0.00000000000000	0.00000000000000	0.00000000000000	28.31279600000000	0.00000000000000	0.00000000000000	0.00000000000000	0.00000000000000	
9.39163500000000	-19.51726700000000	731.02913899999999	51.44967900000000	0.21315900000000	0.00000000000000	0.13683800000000	0.00000000000000	0.00000000000000	0.00000000000000	0.00000000000000	0.00000000000000	0.00000000000000	0.00000000000000	28.51433600000000	0.00000000000000	0.00000000000000	0.00000000000000	0.00000000000000	
9.39330400000000	-20.33342800000000	732.48529299999996	51.60234300000000	0.21186900000000	0.00000000000000	0.13689800000000	0.00000000000000	0.00000000000000	0.00000000000000	0.00000000000000	0.00000000000000	0.00000000000000	0.00000000000000	28.71877600000000	0.00000000000000	0.00000000000000	0.00000000000000	0.00000000000000	
9.39497200000000	-21.15319300000000	733.99031900000000	51.76288100000000	0.21059100000000	0.00000000000000	0.13695700000000	0.00000000000000	0.00000000000000	0.00000000000000	0.00000000000000	0.00000000000000	0.00000000000000	0.00000000000000	28.92597100000000	0.00000000000000	0.00000000000000	0.00000000000000	0.00000000000000	
9.39663300000000	-21.97570800000000	735.54489400000000	51.93160500000000	0.20932700000000	0.00000000000000	0.13701500000000	0.00000000000000	0.00000000000000	0.00000000000000	0.00000000000000	0.00000000000000	0.00000000000000	0.00000000000000	29.13576400000000	0.00000000000000	0.00000000000000	0.00000000000000	0.00000000000000	
9.39830100000000	-22.80011300000000	737.14956400000005	52.10881400000000	0.20807900000000	0.00000000000000	0.13707100000000	0.00000000000000	0.00000000000000	0.00000000000000	0.00000000000000	0.00000000000000	0.00000000000000	0.00000000000000	29.34799200000000	0.00000000000000	0.00000000000000	0.00000000000000	0.00000000000000	
9.39997400000000	-23.62554000000000	738.80473500000005	52.29480000000000	0.20684700000000	0.00000000000000	0.13712600000000	0.00000000000000	0.00000000000000	0.00000000000000	0.00000000000000	0.00000000000000	0.00000000000000	0.00000000000000	29.56248100000000	0.00000000000000	0.00000000000000	0.00000000000000	0.00000000000000	
